<svg width="328" height="359" viewBox="0 0 328 359" fill="none" xmlns="http://www.w3.org/2000/svg">
<g clip-path="url(#clip0_40_2)">
<path d="M278.283 242.07C277.202 241.811 277.202 242.848 276.9 243.366C266.481 260.824 252.474 274.565 234.533 284.201C229.302 287.01 223.854 289.343 218.191 291.201C215.165 291.85 212.009 292.195 209.458 294.226C208.853 294.745 208.031 294.874 207.253 295.047C200.466 296.56 193.635 297.942 186.675 298.634C186.156 298.677 185.551 298.85 185.205 298.591C183.865 297.597 182.481 298.202 181.098 298.374C173.705 298.979 166.313 299.109 158.92 299.066C154.121 299.023 149.323 298.677 144.524 298.245C143.616 298.158 142.665 297.986 141.757 298.288C141.8 298.418 141.8 298.504 141.714 298.591C139.898 299.325 138.169 298.418 136.44 298.245C130.084 297.51 123.773 296.3 117.504 294.831C116.726 294.658 115.991 294.313 115.342 293.88C111.149 292.411 106.912 291.115 102.762 289.473C82.2268 281.392 65.9284 267.997 53.4776 249.805C51.7051 247.212 50.0191 244.533 48.333 241.897C47.2955 241.206 47.0793 239.996 46.4741 239.045C42.2373 232.434 39.1679 225.261 36.0552 218.088C35.7526 217.353 35.9687 216.705 35.8823 216.014C34.6718 212.73 33.2451 209.489 32.4669 206.032C32.3372 203.137 31.1268 200.544 30.4783 197.778C28.7922 190.692 27.3224 183.562 26.3713 176.346C25.3769 169.518 24.9446 162.648 24.9014 155.777C24.9014 144.283 25.5498 132.832 28.187 121.597C30.8241 110.405 34.8015 99.775 41.243 90.1389C44.226 85.6449 47.771 81.6263 51.4457 77.694C59.703 69.6999 69.3437 64.0824 80.4543 60.928C82.3997 61.1873 84.0858 60.2798 85.9015 59.8477C96.3204 57.5575 106.782 57.2983 117.331 58.8107C121.654 59.4156 125.891 60.1934 130.171 60.9712C130.733 61.0577 131.295 61.1441 131.857 60.8848C138.515 61.9651 145.043 63.6503 151.657 65.0763C152.219 65.2059 152.522 65.5948 152.695 66.0702C154.424 70.3913 155.894 74.7557 156.715 79.3361C156.802 79.8114 156.845 80.3299 156.586 80.8052C155.289 81.6263 153.689 81.5398 152.306 82.1448C151.398 82.5337 150.144 82.7065 150.101 83.9165C150.058 85.256 151.311 85.6017 152.306 85.9474C156.629 87.503 161.168 88.0215 165.664 87.8055C168.863 87.6326 172.149 87.503 175.218 86.3363C175.737 86.1202 176.299 85.9906 176.818 85.7313C177.553 85.3424 178.201 84.8671 178.158 83.9597C178.115 83.009 177.337 82.7065 176.602 82.4041C175.391 81.9287 174.094 81.7991 172.798 81.7559C171.068 81.7127 169.339 81.8855 167.696 81.2374C168.301 77.0891 166.875 73.3297 165.751 69.4407C165.621 68.9653 165.664 68.4468 166.01 68.0147C167.091 67.3233 168.301 67.2369 169.512 67.1504C175.132 66.5455 180.666 65.5084 186.199 64.3417C186.891 64.2121 187.626 64.0392 188.145 63.4775C189.917 62.57 191.906 62.9157 193.765 62.5268C200.682 61.0144 207.729 60.2366 214.43 57.7304C214.646 57.644 214.862 57.7304 215.035 57.86C215.467 58.5082 216.116 58.2057 216.591 58.1625C226.319 57.1686 235.786 58.6378 244.995 61.5762C260.904 66.5887 273.398 76.268 283.125 89.6636C283.86 90.7006 284.552 91.8241 285.244 92.9044C285.806 94.9354 287.059 96.6206 288.054 98.4355C293.371 108.374 296.397 119.004 298.3 130.023C300.115 140.307 300.548 150.721 300.202 161.135C299.986 167.358 299.424 173.58 298.256 179.716C296.786 190.821 293.89 201.581 290.691 212.254C290.431 213.162 289.523 213.939 290.042 215.063C290.086 215.365 290.129 215.625 290.172 215.927C289.48 219.168 288.01 222.15 286.713 225.174C284.336 230.619 281.915 236.107 278.672 241.119C278.37 241.465 278.456 241.811 278.283 242.07Z" fill="#53B556"/>
<ellipse cx="161.903" cy="347.635" rx="98.7848" ry="11.451" fill="black" fill-opacity="0.08"/>
<path d="M278.283 242.07C278.37 241.681 277.592 241.638 277.981 241.033C282.693 233.471 286.108 225.347 289.307 217.094C289.437 216.705 289.783 216.403 290.042 216.057C300.375 224.829 310.145 234.162 317.624 245.613C322.25 252.7 325.968 260.132 327.438 268.602C328.735 275.948 328.216 282.948 323.677 289.17C320.824 293.103 316.933 295.523 311.875 295.652C307.94 295.739 305.174 294.01 303.358 290.596C302.277 288.609 301.715 286.491 300.807 284.46C299.64 281.911 298.818 281.738 296.7 283.683C295.23 285.065 293.89 286.578 292.118 287.615C289.61 289.084 286.584 289.041 284.422 287.356C282.174 285.627 282.045 283.294 282.563 280.744C283.125 277.892 284.422 275.3 285.892 272.88C289.264 267.219 288.962 261.602 286.324 255.811C284.336 251.404 281.958 247.255 279.062 243.366C278.716 242.934 278.327 242.589 278.283 242.07Z" fill="#419B47"/>
<path d="M35.8823 216.1C39.0382 223.705 42.1942 231.31 46.6038 238.311C47.3388 239.434 48.0305 240.601 48.3763 241.94C44.8313 247.731 41.2431 253.521 39.6003 260.219C38.6492 264.065 39.1679 267.738 41.0701 271.238C42.6697 274.176 44.3125 277.158 45.1772 280.442C45.8256 283.034 45.6527 285.454 43.3614 287.269C41.1566 289.041 38.3898 289.084 35.7094 287.528C33.9369 286.535 32.5102 285.109 31.0836 283.683C29.2246 281.781 28.1006 282.041 27.2359 284.504C26.4578 286.751 25.8093 289.041 24.5123 291.029C21.3996 295.868 15.2607 297.035 9.64059 293.924C3.93398 290.769 1.25361 285.627 0.388972 279.491C-1.29707 267.392 2.68026 256.676 8.86241 246.694C15.7795 235.459 24.7717 225.995 34.6286 217.267C35.0609 216.878 35.45 216.489 35.8823 216.1Z" fill="#419B47"/>
<path d="M115.342 293.88C118.844 294.572 122.346 295.35 125.891 295.955C130.43 296.732 135.013 297.381 139.595 298.115C140.287 298.245 140.979 298.418 141.671 298.547C141.671 309.998 141.714 321.406 141.714 332.857C141.714 333.419 141.714 334.024 141.325 334.499C140.719 336.876 140.59 339.339 139.336 341.543C138.039 343.876 136.223 345.432 133.802 346.296C130.474 347.506 127.015 347.981 123.556 348.456C119.752 348.586 115.948 349.018 112.143 348.889C106.48 348.716 100.816 348.456 95.2396 347.549C93.3806 347.246 91.6946 346.425 89.8788 346.08C87.7172 344.654 88.236 342.493 88.7548 340.635C91.6946 330.394 99.2601 324.517 109.938 324.042C115.213 323.783 115.213 323.783 115.256 318.468C115.256 310.301 115.299 302.091 115.342 293.88Z" fill="#419A47"/>
<path d="M181.53 298.158C182.092 298.029 182.654 297.683 183.173 297.769C189.917 298.461 196.272 296.3 202.8 295.393C207.772 294.701 212.009 291.936 216.851 291.028C217.369 290.942 217.802 290.683 218.234 291.158C217.024 291.59 215.813 292.022 214.559 292.411C210.496 293.708 210.496 293.708 210.496 297.856C210.496 305.764 210.539 313.671 210.496 321.622C210.496 323.048 210.625 323.783 212.354 323.869C215.554 324.042 218.839 324.042 221.952 324.993C228.048 326.851 233.019 330.048 235.484 336.228C235.527 337.697 236.218 338.993 236.521 340.376C237.256 343.962 236.218 345.82 232.803 347.03C230.339 347.895 227.745 348.154 225.194 348.37C216.159 349.061 207.167 349.364 198.174 348.068C196.834 347.895 195.494 347.592 194.154 347.333C188.534 346.253 185.205 343.098 184.816 337.221C184.816 337.178 184.729 337.135 184.729 337.135C184.643 337.135 184.816 337.135 184.729 337.135C184.167 336.271 184.5 335.5 184.254 334.456C184.556 333.548 184.383 332.598 184.383 331.69C184.383 321.449 184.383 311.251 184.383 301.01C184.383 300.233 184.556 299.412 184.211 298.677C183.346 297.856 182.438 299.023 181.573 298.59C181.444 298.504 181.4 298.418 181.444 298.331C181.4 298.202 181.444 298.158 181.53 298.158Z" fill="#419A47"/>
<path d="M164.929 220.896C156.542 220.983 149.409 218.866 143.4 213.767C140.157 211.044 137.563 207.76 137.347 203.223C137.218 200.717 138.601 198.729 140.719 198.038C143.14 197.26 145.95 198.124 147.291 200.069C147.593 200.501 147.896 200.89 148.026 201.365C149.971 207.847 155.418 209.316 161.038 210.396C164.799 211.087 168.474 210.569 172.019 209.186C174.959 208.063 177.337 206.464 178.72 203.482C179.714 201.322 181.573 200.069 184.038 199.939C187.929 199.766 190.263 202.532 189.398 206.334C188.231 211.606 184.427 214.631 180.06 217.051C175.262 219.773 169.987 221.156 164.929 220.896Z" fill="#1C5D25"/>
<path d="M214.905 57.9896C212.095 59.9342 208.766 60.1934 205.611 60.928C200.942 62.0083 196.186 62.5268 191.603 63.9096C190.523 64.2553 189.399 62.7861 188.404 64.0825C186.848 65.0331 185.075 64.9899 183.389 64.9899C178.591 64.9467 173.792 65.5948 168.993 65.5084C167.696 65.5084 166.399 65.422 165.189 64.9035C164.194 64.4281 164.367 63.5639 164.497 62.7429C165.059 61.7922 165.837 61.0577 166.572 60.2799C177.164 49.3474 189.053 40.1434 202.022 32.1925C207.426 28.8652 212.96 25.7972 218.494 22.686C219.229 22.2971 220.136 21.9946 220.309 20.9575C219.574 20.3093 218.753 20.7847 218.018 20.8711C207.47 22.4267 198.002 26.7046 189.182 32.4949C181.703 37.421 175.089 43.4274 169.339 50.3412C167.221 52.8907 165.621 55.7427 163.719 58.465C163.589 58.6378 163.416 58.7675 163.243 58.8539C161.773 57.5575 161.557 55.8723 161.73 54.0574C162.725 49.3042 163.243 44.4645 164.584 39.7977C170.636 18.5377 184.038 5.18536 206.173 1.29634C221.347 -1.38277 236.175 0.12963 250.615 5.61747C251.912 6.0928 253.079 6.74097 253.987 7.86446C255.111 9.29044 255.63 10.7596 255.111 12.6609C252.906 20.2661 248.929 26.9639 244.303 33.2727C236.997 43.2114 228.048 51.2487 217.11 57.039C216.375 57.4279 215.64 57.6872 214.905 57.9896Z" fill="#48A54D"/>
<path d="M164.67 62.6997C164.973 63.2614 165.059 63.8232 164.713 64.3849C165.794 65.4652 166.14 66.8048 165.967 68.2739C166.616 70.6938 167.091 73.1136 167.913 75.447C168.648 77.478 168.475 79.3361 167.653 81.2374C166.572 85.2128 158.747 85.3424 156.672 82.7497C156.197 82.1448 155.937 81.5398 156.37 80.8052C155.332 75.447 153.776 70.2185 151.614 65.2059C148.891 58.5082 146.124 51.8104 142.708 45.4151C137.261 35.2172 130.171 26.575 120.444 20.1365C115.689 17.0253 114.435 13.5251 115.818 9.03116C117.375 4.06186 122.433 1.25312 127.534 2.37661C134.581 3.88901 139.466 8.38299 143.53 13.9573C150.317 23.2909 154.511 33.8777 158.661 44.5077C159.871 47.6621 160.909 50.8598 161.73 54.1006C162.465 55.613 162.379 57.4279 163.416 58.8539C164.411 59.8909 165.189 61.1009 164.67 62.6997Z" fill="#7C6545"/>
<path d="M156.326 80.8052C156.413 82.0152 157.105 82.7065 158.142 83.2251C161.082 84.6943 164.411 84.0461 167.653 81.2374C170.766 81.367 173.922 80.8052 176.948 81.9719C178.029 82.3608 178.98 82.7497 178.937 84.1325C178.893 85.3856 178.072 86.0338 177.034 86.4659C175.046 87.2869 172.971 87.8055 170.852 88.108C164.54 88.929 158.315 88.7561 152.219 86.7252C151.571 86.5091 150.879 86.1634 150.317 85.7745C148.631 84.651 148.631 83.3115 150.447 82.3608C152.219 81.4102 154.208 80.8917 156.326 80.8052Z" fill="#398C41"/>
<path d="M164.67 62.6997C164.238 61.4034 163.805 60.1502 163.373 58.8539C164.497 55.5266 166.659 52.8043 168.82 50.1684C176.516 40.878 185.637 33.2727 196.316 27.6553C203.622 23.8095 211.317 21.2168 219.488 20.0069C220.18 19.9204 220.871 19.9204 221.131 20.655C221.433 21.4328 220.828 21.8217 220.223 22.1674C216.289 24.4144 212.355 26.6182 208.464 28.9084C198.564 34.7851 188.837 40.878 180.104 48.3535C174.916 52.7611 169.815 57.3415 165.275 62.4404C165.146 62.6133 164.886 62.6133 164.67 62.6997Z" fill="#31803A"/>
<path d="M136.526 187.969C135.229 189.136 133.932 190.26 132.635 191.426C129.522 194.624 125.459 196.093 121.265 197.044C114.607 198.556 108.296 197.476 102.33 194.278C101.984 194.105 101.724 193.933 101.551 193.587C100.384 192.766 99.2168 191.902 98.0063 191.081C96.2771 190.389 95.2827 188.877 94.2019 187.494V187.537C88.625 181.012 86.3337 173.234 85.815 164.938C85.3394 157.419 86.7228 150.203 90.3975 143.505C90.7434 142.9 90.8731 142.122 91.608 141.776C92.2997 140.739 92.9914 139.702 93.6832 138.665C94.8936 136.159 96.8823 134.344 99.0007 132.659L98.9574 132.702C103.626 129.072 108.728 126.609 114.737 126.177C116.034 126.177 117.331 126.177 118.628 126.177C123.513 126.48 127.966 128.078 132.073 130.758C132.505 131.017 132.894 131.363 133.111 131.795C136.699 134.776 139.725 138.19 142.146 142.165C144.87 145.752 146.037 149.987 146.642 154.265C148.242 165.802 145.648 176.432 138.731 185.852C138.125 186.716 137.434 187.451 136.526 187.969Z" fill="#FEFEFE"/>
<path d="M130.084 182.395C123.47 186.803 114.305 185.42 109.765 179.327C108.555 176.994 106.999 174.876 106.22 172.327C103.972 164.938 104.275 157.765 107.517 150.721C107.734 150.203 108.123 149.727 108.079 149.122C113.094 140.48 123.297 138.147 130.906 143.894C132.376 146.011 134.408 147.61 135.834 149.814C141.325 158.499 139.725 173.062 132.419 180.235C131.684 180.969 130.517 181.272 130.084 182.395Z" fill="#222323"/>
<path d="M225.54 130.542C226.708 131.363 227.875 132.184 229.085 133.048C230.685 133.782 231.852 134.949 232.587 136.548C233.279 137.412 233.97 138.32 234.662 139.184C236.824 141.301 238.034 144.024 239.072 146.703C243.309 157.419 242.876 168.135 238.467 178.679C237.645 180.624 236.608 182.525 235.008 184.037C234.273 184.945 233.322 185.722 232.89 186.846C231.679 188.963 229.863 190.389 227.745 191.513C227.14 191.902 226.535 192.334 225.973 192.723C222.687 195.272 218.796 196.525 214.776 197.13C208.507 198.038 202.584 196.828 197.18 193.328C196.921 193.155 196.748 192.982 196.618 192.723C195.883 192.161 195.148 191.642 194.413 191.081C192.511 190.13 191.214 188.618 190.133 186.846C189.269 185.636 188.404 184.426 187.539 183.173C186.372 181.92 185.508 180.451 184.946 178.852V178.895C183.692 176.346 182.914 173.623 182.092 170.944C181.357 167.358 181.098 163.728 181.184 160.012C181.401 152.104 183.865 145.017 188.361 138.536C188.577 138.233 188.88 138.017 189.182 137.887C189.442 137.758 189.701 137.628 189.615 137.239C190.739 135.338 192.295 133.826 194.197 132.659C196.013 131.492 197.785 130.369 199.601 129.202C202.584 127.257 205.913 126.566 209.372 126.393C214.473 126.091 219.401 126.912 223.941 129.418C224.589 129.721 225.281 129.893 225.54 130.542Z" fill="#FEFEFE"/>
<path d="M219.055 179.327C218.71 180.105 218.191 180.71 217.326 180.969C216.937 180.926 216.634 181.142 216.375 181.358C209.501 187.192 199.471 185.766 193.722 178.722C187.064 170.512 186.545 157.289 192.381 148.647C199.255 138.492 212.7 139.789 219.185 148.215C225.367 156.252 225.497 170.987 219.228 178.506C219.099 178.765 219.012 179.025 219.055 179.327Z" fill="#212323"/>
</g>
<defs>
<clipPath id="clip0_40_2">
<rect width="328" height="359" fill="white"/>
</clipPath>
</defs>
</svg>
