<svg width="288" height="356" viewBox="0 0 288 356" fill="none" xmlns="http://www.w3.org/2000/svg">
<g clip-path="url(#clip0_45_56)">
<path d="M286.246 210.93C283.635 207.296 279.679 206.316 275.519 206.234C266.545 206.03 257.939 208.439 249.211 210.195C246.478 210.603 243.745 211.093 241.012 211.46C234.119 212.44 227.186 213.094 220.211 213.298C216.948 213.38 213.685 213.298 210.055 213.298C210.585 212.93 210.789 212.767 210.993 212.604C219.395 206.398 225.88 198.517 230.897 189.371C230.816 189.004 230.734 188.595 231.305 188.555C232.121 187.575 232.692 186.513 233.059 185.329C233.304 184.921 233.589 184.553 233.793 184.104C240.278 170.467 243.582 156.054 243.827 140.946C243.99 131.555 242.603 122.287 240.197 113.223C233.589 88.5202 219.599 69.6158 196.35 58.1833C186.439 53.3245 175.916 50.5072 164.985 48.8739C165.474 48.3023 166.086 48.2207 166.657 48.0982C173.224 46.5466 179.831 45.1175 186.276 43.1985C191.211 41.7286 196.065 40.0954 199.98 36.5432C204.304 32.5826 203.284 27.193 197.778 25.1923C195.779 24.4982 193.699 24.1716 191.619 24.0899C182.809 23.8041 174.692 26.3764 166.82 29.9695C165.964 30.3778 165.189 31.0719 163.802 30.8678C165.8 29.3979 167.554 28.1321 169.267 26.8255C173.958 23.355 178.852 20.1702 182.523 15.4747C184.563 12.8616 186.357 10.1259 185.949 6.61451C185.542 2.81729 181.871 0.204146 177.18 -0.0408359C172.082 -0.285818 167.391 1.22491 163.027 3.6339C147.079 12.3716 136.066 25.3965 130.193 42.6269C129.377 45.0359 128.113 45.5259 126.073 45.6483C117.427 46.22 108.984 47.9757 100.704 50.5888C83.6546 55.9784 69.9908 66.1044 59.1005 80.0684C45.967 96.8905 41.1948 116.938 37.6056 137.394C37.524 137.517 37.4016 137.598 37.4016 137.721C35.6478 148.092 34.057 158.503 34.4649 169.038C34.6281 173.815 34.9136 178.592 36.3411 183.206C37.4424 189.126 39.6857 194.557 42.6224 199.742C45.4775 204.764 49.23 209.092 53.5534 212.971C53.839 213.91 54.6547 214.319 55.3073 214.849C58.9782 217.83 63.0977 220.198 67.2172 222.566C68.4408 223.301 68.8895 224.077 68.604 225.506C68.1961 227.548 67.9922 229.671 67.7882 231.753C67.7067 232.488 67.5027 233.264 68.2369 233.795C68.3185 233.835 68.4001 233.917 68.4816 233.958C68.2777 233.958 68.0738 233.999 67.829 234.08C67.258 235.469 67.1764 236.979 67.0949 238.449C66.4423 251.066 68.1145 263.356 72.7235 275.197C73.0906 276.095 73.5801 276.871 74.355 277.483C78.7601 286.752 84.919 294.673 93.1172 300.879C98.3788 304.84 103.885 308.392 110.126 310.556C111.635 311.087 113.103 311.903 114.694 312.189C117.467 312.679 119.507 314.72 122.239 315.455C127.419 316.803 132.681 317.007 137.902 317.211C144.673 317.456 151.443 317.334 158.214 317.252C160.009 316.844 161.803 316.639 163.639 316.517C168.696 316.068 173.672 315.21 178.485 313.618C179.587 313.251 180.606 312.801 181.34 311.862C182.646 311.413 183.992 310.964 185.297 310.474C187.255 310.392 188.927 309.453 190.64 308.637C198.349 304.962 205.201 299.899 212.176 295.081C214.134 293.734 216.051 292.305 217.927 290.835C218.498 290.386 219.354 289.896 219.11 289.079C218.824 288.14 217.804 288.303 216.989 288.222C216.948 288.222 216.907 288.222 216.907 288.222C216.907 288.222 216.907 288.222 216.785 288.222C203.977 288.058 193.373 282.791 184.522 273.849C177.914 267.153 173.509 259.109 171.388 249.882C171.592 250.78 172.082 251.515 172.571 252.25C177.425 260.089 183.706 266.663 191.089 272.134C200.266 278.871 210.34 283.608 221.638 285.486C222.617 285.649 223.637 286.017 224.616 285.323C230.122 285.159 235.343 283.975 239.993 280.995C243.133 278.994 244.072 276.34 242.766 273.033C242.277 271.808 242.685 271.563 243.745 271.318C247.579 270.46 251.25 269.154 254.799 267.48C260.754 264.662 266.015 260.906 269.604 255.231C272.704 250.29 272.296 245.146 268.585 241.512C268.055 241.307 267.565 241.267 267.076 241.307C267.565 241.144 268.055 240.94 268.544 240.777C270.543 240.001 272.133 238.654 273.806 237.388C279.108 233.386 283.839 228.895 286.531 222.607C288.081 218.81 288.978 214.768 286.246 210.93ZM134.068 110.732C137.086 106.935 140.471 103.546 144.632 100.973C154.788 94.6448 166.29 96.2372 174.325 104.975C175.549 106.322 176.446 107.996 177.833 109.221C177.914 109.344 177.996 109.507 178.118 109.63C178.118 110.079 178.322 110.487 178.526 110.936C182.034 118.245 183.094 125.962 182.075 134.005C180.81 144.009 177.302 152.951 170.083 160.218C168.329 161.974 166.331 163.321 164.577 165.036C164.21 165.608 163.72 166.057 163.108 166.425C155.073 170.998 146.957 171.61 138.84 166.67C136.311 165.118 133.864 163.403 132.518 160.545C131.906 159.034 130.764 157.809 129.989 156.339C127.175 151.113 125.706 145.519 125.462 139.558C125.013 138.211 125.013 136.863 125.462 135.516C125.706 128.003 127.827 121.062 131.539 114.57C131.825 114.039 132.151 113.508 131.947 112.896C131.988 112.896 131.988 112.896 132.028 112.896C133.007 112.488 133.415 111.508 134.068 110.732ZM153.442 251.27C153.401 251.27 153.401 251.27 153.36 251.27C153.401 251.229 153.442 251.27 153.442 251.27ZM36.5859 183.124C36.9122 182.757 36.8714 182.226 36.953 181.736C37.0345 182.308 36.953 182.798 36.5859 183.124ZM57.3059 177.285C54.6139 176.551 54.3692 176.183 54.8586 173.407C56.2454 165.812 59.7123 159.32 65.2186 153.93C65.9936 153.155 66.8501 152.461 66.8909 151.236C66.8501 150.623 66.5646 150.052 66.2791 149.521C61.4662 140.865 60.6097 131.637 62.2819 122.042C62.4043 121.266 62.6898 120.49 62.3635 119.755C62.4043 119.674 62.4451 119.592 62.4859 119.551C63.1385 118.653 63.4648 117.591 63.7911 116.571C66.4423 108.895 71.092 102.77 78.0667 98.6053C86.9175 93.2974 101.193 93.1749 107.719 107.057C108.005 107.67 108.209 108.323 108.902 108.65C108.943 108.731 109.024 108.854 109.065 108.935C108.576 109.793 108.943 110.691 109.147 111.549C109.881 114.652 110.37 117.836 110.085 121.021C109.555 126.533 108.494 131.882 106.332 137.027C105.965 137.966 105.435 138.864 105.761 139.966C106.128 140.62 106.822 140.824 107.434 141.028C117.223 144.213 122.525 151.399 125.054 160.994C125.462 162.505 125.951 163.811 127.093 164.873C129.092 166.71 130.071 169.038 130.479 171.651C131.743 179.286 130.275 186.431 126.726 193.168C120.486 205.05 110.86 212.4 97.3591 213.706C89.3648 214.482 83.0427 210.848 78.189 204.56C77.4549 203.58 77.3733 202.478 77.4957 201.253C78.0667 195.782 78.7193 190.31 78.5561 184.798C78.4746 182.471 78.3522 182.144 75.9865 181.695C69.7868 180.429 63.5056 178.96 57.3059 177.285ZM255.655 244.941C255.533 244.982 255.41 244.982 255.329 245.023C256.838 244.656 258.306 244.288 259.775 243.839C258.388 244.247 257.042 244.656 255.655 244.941Z" fill="#00A9F2"/>
<path d="M53.5129 213.094C54.9404 213.502 55.8785 214.604 56.9798 215.462C60.5691 218.116 64.4439 220.362 68.3595 222.526C69.4608 223.138 69.6647 223.669 69.4608 224.894C68.9305 227.874 68.6042 230.896 68.1963 233.917C67.9108 237.633 67.7477 241.348 67.7477 245.064C67.6661 256.047 70.0318 266.5 74.0289 276.667C74.1513 276.993 74.1921 277.32 74.3145 277.647C69.216 278.708 64.036 279.484 58.8152 279.198C54.7365 278.953 50.7801 278.3 46.9461 276.789C45.233 276.095 43.7239 275.115 42.4595 273.727C41.3582 272.502 40.8688 271.032 41.4398 269.603C42.0924 268.011 41.5622 267.766 40.1754 267.398C31.9363 265.071 24.2275 261.763 18.1502 255.435C16.4371 253.679 15.1319 251.638 14.3569 249.269C13.5004 246.575 13.7043 243.961 15.2951 241.675C16.2332 240.328 16.0292 239.756 14.7648 238.817C9.87032 235.265 5.83237 230.896 2.73252 225.71C1.5089 223.669 0.57079 221.464 0.203703 219.137C-0.815983 212.726 2.97725 208.235 9.46245 207.377C15.7845 206.561 21.8618 208.031 27.9392 209.256C35.9335 210.848 43.8462 213.012 52.0853 213.135C52.5748 213.135 53.0234 213.094 53.5129 213.094Z" fill="#008ED7"/>
<path d="M185.175 310.556C189.58 308.31 194.148 306.391 198.308 303.655C205.038 299.246 211.727 294.754 218.131 289.855C218.335 289.691 218.498 289.528 218.988 289.079C204.141 289.283 192.19 283.567 182.605 272.992C173.958 263.438 170.736 252.944 170.614 248.249C183.095 268.909 200.715 281.607 224.453 285.404C224.29 286.833 225.554 286.384 226.125 286.507C232.855 287.813 239.708 288.712 246.274 290.712C248.762 291.447 251.128 292.386 253.127 294.101C255.778 296.388 255.982 299.287 253.616 301.941C250.965 304.921 247.376 306.105 243.664 306.922C240.564 307.616 237.424 308.188 234.242 308.147C231.142 308.106 228.042 308.351 224.902 307.779C224.943 308.8 225.758 308.555 226.248 308.8C229.103 310.352 231.999 311.822 234.528 313.945C235.262 314.557 235.955 315.21 236.526 315.986C239.667 320.151 238.402 324.356 233.508 326.194C229.878 327.582 226.044 327.664 222.291 327.255C210.137 325.908 199.287 321.172 189.458 313.986C187.989 312.883 186.888 311.332 185.175 310.556Z" fill="#0090D7"/>
<path d="M110.044 310.678C112.777 311.168 115.428 312.148 117.916 313.251C122.158 315.047 126.604 315.905 131.091 316.272C140.064 317.089 149.119 316.803 158.133 316.721C158.174 316.844 158.214 316.925 158.255 317.048C157.806 317.824 157.032 317.824 156.297 317.905C149.323 318.681 142.348 318.436 135.414 317.742C133.008 317.497 132.763 317.66 132.477 320.11C131.825 325.418 131.091 330.726 130.234 336.034C129.949 337.83 130.275 339.055 131.784 340.239C133.946 341.873 135.944 343.751 136.434 346.691C136.311 349.263 135.496 350.161 132.641 350.896C128.562 351.958 124.361 352.284 120.16 352.611C112.002 353.224 103.804 353.713 95.6056 353.428C90.9559 353.264 86.2653 353.224 81.6155 352.652C80.5143 352.529 79.6985 352.08 79.1275 351.141C77.7815 350.406 77.7 349.304 78.1894 347.997C79.6985 343.873 82.5537 340.852 86.1022 338.443C92.6689 334.074 99.8475 333.584 107.352 334.932C109.677 335.34 112.002 335.83 114.286 336.401C115.428 336.687 115.714 336.279 115.836 335.299C116.652 328.562 117.468 321.866 118.324 315.129C118.447 314.19 118.161 313.659 117.182 313.332C114.776 312.638 112.247 312.067 110.044 310.678Z" fill="#009AE2"/>
<path d="M182.727 337.585C185.787 338.647 189.05 338.729 192.027 340.076C194.882 341.342 197.737 342.648 199.328 345.547C200.674 347.997 201.408 350.529 197.411 351.917C195.779 353.632 193.455 353.591 191.415 353.836C187.622 354.244 183.829 354.816 180.036 355.142C172.653 355.796 165.311 356.122 157.929 356C157.031 356 156.175 356 155.278 355.837C152.871 355.632 150.383 356.082 148.017 355.142C146.957 354.734 146.019 354.244 145.611 353.142C145.162 351.386 145.652 349.835 146.549 348.324C150.057 342.363 155.481 339.259 162.048 337.871C163.557 337.545 165.107 337.34 166.657 337.095C167.391 336.973 168.166 336.891 168.493 336.034C168.901 334.115 168.166 332.278 168.166 330.399C168.166 329.991 168.003 329.624 167.962 329.215C167.595 325.01 168.003 324.561 172.204 324.561C174.448 324.561 176.609 323.948 178.812 323.581C181.341 323.172 181.422 323.336 181.789 325.785C182.32 329.664 182.156 333.666 182.727 337.585Z" fill="#009BE3"/>
<path d="M182.728 337.585C181.993 335.544 182.075 333.339 181.993 331.216C181.871 329.134 181.463 327.051 181.504 324.969C181.545 324.111 181.137 323.948 180.362 324.071C178.363 324.397 176.365 324.642 174.366 325.051C173.02 325.336 171.715 325.418 170.369 325.051C169.023 324.683 168.37 325.255 168.452 326.561C168.574 328.766 168.697 331.012 169.023 333.217C169.186 334.441 169.268 335.626 169.186 336.85C168.126 336.483 168.167 335.503 168.003 334.686C167.269 329.787 166.943 324.846 166.413 319.906C166.127 317.089 165.882 316.844 163.027 317.17C161.437 317.374 159.805 317.946 158.337 316.803C158.255 316.762 158.214 316.721 158.133 316.68C160.58 316.272 163.027 315.66 165.475 315.537C170.94 315.251 176.038 313.536 181.178 311.862C181.422 316.394 181.586 320.886 181.912 325.418C182.279 329.501 182.728 333.543 182.728 337.585Z" fill="#008DD3"/>
<path d="M230.856 189.412C230.408 189.33 229.877 189.29 229.918 188.636C229.959 188.31 230.122 187.983 230.489 187.901C231.019 187.779 231.142 188.187 231.264 188.595C231.183 188.922 231.223 189.249 230.856 189.412Z" fill="#00A9F2"/>
<path d="M131.784 160.749C130.03 157.85 128.276 154.992 127.094 151.766C125.625 147.806 124.809 143.805 124.728 139.599C124.524 138.252 124.565 136.904 124.728 135.557C124.85 127.227 127.542 119.715 131.784 112.692C134.966 108.282 138.555 104.281 143.082 101.178C154.829 93.1341 168.901 95.7064 177.058 107.384C177.425 107.915 177.833 108.486 178.241 109.017C181.749 115.346 183.299 122.205 183.054 129.391C182.728 139.109 180.199 148.214 174.407 156.217C171.797 159.851 168.534 162.913 164.822 165.445C161.396 168.344 157.358 169.773 152.994 170.222C144.224 170.998 137.209 167.649 131.784 160.749Z" fill="#FDFEFE"/>
<path d="M109.31 108.609C110.044 111.875 111.023 115.142 110.942 118.49C110.819 125.962 109.025 133.107 106.006 139.926C104.293 140.62 102.703 140.089 101.153 139.354C100.541 138.456 101.03 137.639 101.357 136.863C102.988 132.78 104.049 128.575 104.416 124.247C104.823 119.755 104.049 115.427 101.601 111.549C99.2356 107.792 95.6055 106.526 91.4044 107.996C88.6309 108.935 86.3468 110.609 84.5521 112.937C79.3314 119.592 77.3328 127.268 77.3736 135.598C77.4143 138.374 77.6591 141.151 77.9446 143.927C77.863 144.662 77.3328 145.111 76.7617 145.438C73.7027 147.112 70.766 148.99 67.9924 151.113C67.6254 151.399 67.2175 151.644 66.6873 151.44C60.5691 141.763 59.5495 131.31 61.9967 120.327C62.0783 120 62.0783 119.674 62.1191 119.306C63.7506 114.611 65.5044 109.915 68.7266 105.996C74.1921 99.2586 80.8813 94.6856 89.9361 94.6856C98.787 94.6856 104.66 99.1361 108.454 106.812C108.739 107.425 109.025 108.037 109.31 108.609Z" fill="#FDFEFE"/>
<path d="M147.283 77.6593C157.521 70.269 168.493 72.4739 176.895 79.2926C179.138 81.1299 181.218 83.2123 182.483 85.9479C182.727 86.4379 183.462 86.9687 182.809 87.5403C182.238 88.0303 181.667 87.4178 181.178 87.132C176.487 84.2739 171.633 81.7424 166.372 80.0275C160.335 78.0268 154.176 77.1694 147.283 77.6593Z" fill="#0080C7"/>
<path d="M96.9106 69.0033C101.112 69.3708 105.272 70.0649 107.434 74.5154C107.597 74.8829 107.842 75.3729 107.719 75.6587C107.475 76.1486 106.863 75.9445 106.455 75.822C97.5632 73.0455 89.6505 75.9853 81.9009 79.9459C81.3298 80.2317 80.7588 81.0891 80.147 80.4358C79.6168 79.8642 80.3102 79.2109 80.6365 78.5985C84.1442 72.1881 89.8544 69.4933 96.9106 69.0033Z" fill="#007FC7"/>
<path d="M66.6465 151.399C69.8687 148.337 73.7843 146.377 77.496 144.131C77.8631 143.437 78.4749 143.029 79.1683 142.702C85.3272 140.007 91.69 138.211 98.4607 138.415C99.3988 138.456 100.378 138.415 101.153 139.15C102.784 139.272 104.416 139.477 105.966 139.966C113.063 141.355 118.161 145.56 121.954 151.521C124.034 154.788 125.544 158.299 126.033 162.178C126.115 162.791 126.482 163.158 126.89 163.485C130.724 166.506 131.58 170.753 131.743 175.285C132.314 190.392 122.729 205.989 107.312 212.236C98.7055 215.748 90.1809 215.707 82.3497 209.786C80.6366 208.48 79.0867 206.928 77.7815 205.173C76.8842 203.989 76.7618 202.764 76.925 201.212C77.5368 195.332 78.1486 189.453 78.067 183.573C78.067 182.716 77.6999 182.593 77.0065 182.471C69.9095 181.246 62.8941 179.572 55.9602 177.653C54.084 177.122 53.6353 176.306 53.8801 174.591C54.8182 168.18 57.347 162.464 61.2218 157.279C62.8533 155.074 65.015 153.522 66.6465 151.399Z" fill="#FEBD0B"/>
<path d="M131.784 160.749C133.783 162.26 135.21 164.383 137.331 165.771C145.733 171.365 155.686 171.365 164.169 165.73C164.373 165.608 164.618 165.485 164.863 165.363C164.659 166.71 163.354 166.915 162.497 167.364C151.444 173.325 140.105 170.916 132.11 161.688C131.907 161.443 131.866 161.076 131.784 160.749Z" fill="#0A7CD6"/>
<path d="M229.551 190.678C229.062 191.699 228.695 192.801 227.675 193.25C227.186 193.454 226.819 192.678 226.982 192.27C227.349 191.372 227.879 190.474 228.776 190.025C229.184 189.82 229.388 190.351 229.551 190.678Z" fill="#00A9F2"/>
<path d="M36.3005 183.369C36.6268 182.226 35.8111 181.083 36.1781 179.572C37.361 180.756 37.8096 181.858 37.4833 183.165C37.3202 183.818 36.7084 183.369 36.3005 183.369Z" fill="#00A9F2"/>
<path d="M124.728 135.557C124.728 136.904 124.728 138.252 124.728 139.599C124.238 138.252 124.279 136.904 124.728 135.557Z" fill="#00A9F2"/>
<path d="M202.509 165.853C202.387 166.18 202.142 166.425 201.775 166.425C201.49 166.425 201.204 166.302 201.286 165.975C201.367 165.608 201.612 165.404 201.979 165.404C202.305 165.404 202.509 165.526 202.509 165.853Z" fill="#00A9F2"/>
<path d="M149.771 117.183C151.199 115.06 153.116 113.468 155.441 112.365C157.031 112.12 158.459 111.222 160.131 111.059C164.618 110.609 167.881 112.692 170.287 116.203C172.857 119.919 173.999 124.124 174.162 128.656C174.488 136.863 172.53 144.376 167.922 151.195C167.391 151.971 166.412 152.42 166.331 153.481C165.76 154.502 164.985 155.319 163.965 155.89C162.538 156.38 161.518 157.524 160.213 158.177C153.972 161.28 148.017 159.402 144.795 153.196C142.266 148.418 141.654 143.274 142.062 138.007C142.674 130.576 144.999 123.716 149.649 117.796C149.771 117.591 149.771 117.387 149.771 117.183Z" fill="#1C1E27"/>
<path d="M149.771 117.183C150.179 117.591 149.934 117.877 149.649 118.245C143.775 125.88 141.858 134.659 142.389 144.05C142.592 147.52 143.571 150.868 145.448 153.849C149.037 159.688 155.4 160.953 161.273 157.238C162.089 156.707 162.578 155.4 163.924 155.85C158.785 160.708 152.137 161.362 147.732 157.483C144.306 154.461 142.674 150.46 142.062 146.173C140.512 135.598 143 126.003 149.486 117.469C149.567 117.346 149.689 117.265 149.771 117.183Z" fill="#050607"/>
<path d="M166.331 153.441C165.882 152.91 166.331 152.624 166.616 152.256C173.876 142.457 175.753 131.678 172.041 120.041C171.103 117.101 169.227 114.733 166.779 112.978C163.924 110.936 160.702 111.018 157.48 112.039C156.827 112.243 156.215 113.018 155.44 112.324C161.151 109.099 166.902 110.528 170.695 116.122C174.243 121.43 175.059 127.391 174.529 133.515C173.917 139.926 172.041 146.009 168.166 151.277C167.554 152.052 166.942 152.746 166.331 153.441Z" fill="#040406"/>
<path d="M101.193 139.15C92.8318 138.578 85.0822 140.865 77.5365 144.131C76.0681 138.742 76.2313 133.229 77.2102 127.84C78.1891 122.164 80.31 116.857 84.0625 112.365C85.7348 110.364 87.6925 108.772 90.099 107.67C95.1159 105.424 99.6433 106.69 102.417 111.385C104.823 115.387 105.557 119.837 105.15 124.451C104.701 129.555 103.273 134.454 101.193 139.15Z" fill="#1C1E28"/>
<path d="M121.465 181.205C116.407 192.066 102.58 203.662 87.3258 202.478C86.6732 202.437 85.9798 202.233 85.3272 202.192C84.022 202.11 83.6957 201.416 83.6957 200.191C83.5733 195.047 83.4102 189.861 83.1246 184.717C83.0839 183.573 83.247 183.451 84.3891 183.532C92.9136 184.063 101.357 183.737 109.596 181.287C110.901 180.919 112.165 180.47 113.47 180.062C116.162 180.062 118.895 180.062 121.465 181.205Z" fill="#C55430"/>
<path d="M121.465 181.205C118.691 181.45 116.04 180.96 113.43 180.062C116.733 178.633 120.037 177.245 123.504 175.734C123.178 177.775 122.648 179.613 121.465 181.205Z" fill="#82291B"/>
<path d="M86.5098 199.783C88.2228 196.394 90.303 193.332 93.0765 190.841C93.9739 190.025 94.7488 189.371 96.2172 190.106C97.4 190.719 98.8276 189.82 100.174 189.657C101.56 189.494 102.947 189.208 104.375 189.004C105.027 188.922 105.639 189.045 105.721 189.861C105.884 191.004 104.946 190.596 104.497 190.596C97.7263 190.27 92.4239 192.964 88.4268 198.313C88.1413 198.681 87.7742 199.007 87.4071 199.293C87.1216 199.497 86.7953 199.62 86.5098 199.783Z" fill="#9E3A26"/>
</g>
<defs>
<clipPath id="clip0_45_56">
<rect width="288" height="356" fill="white"/>
</clipPath>
</defs>
</svg>
