<svg width="304" height="333" viewBox="0 0 304 333" fill="none" xmlns="http://www.w3.org/2000/svg">
<g clip-path="url(#clip0_45_108)">
<path d="M94.5707 319.468C94.2434 318.812 93.5072 318.648 92.9345 318.361C76.2865 309.832 62.6245 298.064 53.4619 281.498C47.8172 271.206 44.4221 260.052 42.2133 248.571C40.5771 240.206 39.759 231.718 39.8818 223.189C39.9636 218.515 40.0863 213.799 40.8635 209.125C41.1089 207.607 40.9044 206.951 39.0228 206.746C23.1519 204.983 10.5125 197.971 2.74074 183.538C0.204681 178.822 -0.858828 173.696 0.572819 168.366C2.45441 161.313 9.36722 157.786 17.0572 159.878C20.6159 160.862 23.8064 162.666 26.8333 164.675C32.6826 168.571 38.941 171.523 45.8538 173.04C47.5308 173.409 48.308 173.122 48.8807 171.318C50.4759 165.946 52.2348 160.616 54.0755 155.326C54.5664 153.932 54.1982 153.522 52.9711 152.989C43.7677 149.052 35.3823 143.927 28.5922 136.423C22.3339 129.493 18.7752 121.292 17.2208 112.066C15.1347 99.6827 17.8344 87.9143 21.3112 76.1869C24.5836 65.0746 28.5104 54.2084 34.4006 44.1622C41.8042 31.4917 51.3349 20.8305 63.7289 12.9165C73.1778 6.80681 83.5674 2.87035 94.5707 1.14815C119.768 -2.78832 142.388 3.44442 161.776 20.0924C172.575 29.4005 179.406 41.4559 183.251 55.1925C185.992 65.0336 186.973 75.0388 186.278 85.29C184.846 106.161 178.956 125.721 170.121 144.542C164.312 156.966 157.318 168.858 151.591 181.323C149.914 184.932 148.482 188.663 146.928 192.354C146.724 192.846 146.396 193.543 146.601 193.871C146.969 194.445 147.705 194.076 148.278 193.994C156.581 193.174 164.312 190.385 172.043 187.392C175.847 185.916 179.774 185.137 183.987 185.752C191.759 186.9 195.972 194.937 194.5 201.949C192.413 211.954 185.664 218.228 177.115 222.779C167.38 227.946 156.99 229.34 146.151 227.7C144.842 227.495 143.492 227.331 141.979 227.126C142.101 231.759 143.124 236.188 144.515 240.493C146.314 246.111 148.81 251.318 153.309 255.378C158.422 259.929 164.271 260.914 170.775 259.519C178.547 257.838 185.01 253.779 191.064 248.858C198.672 242.666 204.726 234.999 210.984 227.536C218.101 219.048 225.628 210.97 235.69 205.885C250.866 198.176 265.509 199.488 279.499 208.837C290.952 216.505 297.578 227.7 301.505 240.698C303.673 247.833 304.45 255.091 303.877 262.472C303.468 267.802 302.65 273.133 299.173 277.562C296.187 281.375 291.279 282.523 286.984 280.309C283.507 278.546 281.135 275.716 279.049 272.559C277.29 269.894 275.776 267.064 273.976 264.44C270.091 258.74 265.1 258.371 260.192 263.21C256.797 266.531 254.302 270.509 251.725 274.404C247.511 280.678 243.462 286.993 238.594 292.815C231.313 301.467 223.092 309.012 213.479 315.122C210.779 316.844 207.834 317.992 205.298 319.961C204.521 321.314 203.049 321.683 201.781 322.257C190.696 327.177 179.201 330.663 167.094 332.057C146.151 334.517 125.781 332.221 106.024 324.758C102.792 323.528 99.561 322.216 96.3705 320.781C95.6751 320.453 94.8979 320.248 94.5707 319.468Z" fill="#E258B8"/>
<path d="M105.124 185.916C92.0345 186.162 80.0904 184.071 68.3918 180.134C64.6286 178.863 61.1927 176.977 57.9204 174.721C56.4887 173.737 56.0388 172.671 56.6114 170.949C58.1249 166.357 59.5565 161.723 60.9064 157.089C61.1927 156.187 61.4381 156.064 62.2562 156.31C69.6599 158.484 77.2271 159.468 84.8762 160.001C87.2487 160.165 89.6211 159.755 91.9527 159.304C92.7298 159.14 93.7524 159.017 93.6297 157.91C93.5479 156.966 92.648 156.884 91.9117 156.761C86.5942 155.654 81.2358 154.711 76 153.44C64.2196 150.611 53.0528 146.182 42.9494 139.375C32.7234 132.487 26.2605 123.096 24.2562 110.836C23.0291 103.127 23.8881 95.5002 25.5651 87.9553C28.2239 75.7359 32.0689 63.8445 37.7137 52.6912C46.1399 36.1253 58.1249 22.8397 74.9774 14.4747C82.6674 10.6613 90.7664 8.324 99.3154 7.5039C118.704 5.61768 136.456 10.2102 152.245 21.6506C162.431 29.0314 169.343 39.0366 173.802 50.805C176.42 57.7758 178.097 64.9516 178.751 72.4145C179.897 85.7001 177.688 98.5756 174.416 111.328C171.593 122.317 167.421 132.815 162.676 143.107C157.931 153.399 152.082 163.117 147.501 173.45C145.537 177.879 142.633 179.56 138.379 180.708C131.302 182.635 124.185 184.44 116.945 185.383C112.855 185.875 108.601 186.203 105.124 185.916Z" fill="#FE88D2"/>
<path d="M48.1035 239.017C52.7257 241.887 57.4297 243.651 62.2973 244.881C66.6331 245.988 71.0099 246.767 75.5093 247.054C79.1907 247.3 82.8312 247.505 86.5126 247.382C103.365 246.726 119.318 242.912 133.307 232.948C134.78 231.882 135.352 231.759 135.679 233.85C136.702 240.493 138.543 246.89 142.142 252.631C143.819 255.337 145.701 257.961 147.992 260.176C148.81 260.955 148.932 261.652 148.523 262.677C142.592 277.849 133.184 289.904 118.295 297.121C111.996 300.155 105.328 301.836 98.3339 302.369C93.0163 302.821 87.7806 302.656 82.5039 301.918C79.0271 301.426 76.9001 298.925 74.6094 296.793C61.9291 285.065 54.8118 270.181 50.7623 253.615C49.6579 248.981 48.8398 244.184 48.1035 239.017Z" fill="#FE87D2"/>
<path d="M141.57 186.203C139.238 192.272 137.643 198.34 136.457 204.573C135.475 209.781 135.271 214.988 135.393 220.237C135.434 221.631 135.025 222.656 134.002 223.681C128.235 229.586 121.077 233.153 113.428 235.778C103.12 239.304 92.4847 240.944 81.6042 240.739C72.4417 240.616 63.5246 238.853 55.0574 235.163C52.4804 234.055 50.3125 232.251 47.9401 230.775C47.1629 230.283 47.0402 229.504 46.9993 228.643C46.5084 216.177 48.1446 203.917 50.8443 191.821C51.7032 187.966 52.7258 184.194 53.5848 180.544C82.136 195.388 111.342 196.454 141.57 186.203Z" fill="#FE88D2"/>
<path d="M91.7075 309.053C99.6429 309.217 107.374 308.438 114.859 305.855C132.448 299.786 144.801 288.059 151.959 270.878C152.737 268.991 152.941 266.408 154.332 265.383C155.682 264.358 157.809 266.285 159.69 266.654C167.503 268.089 174.784 266.244 181.86 263.087C184.928 261.693 184.846 261.693 187.342 263.989C192.782 268.95 197.404 274.445 200.513 281.211C205.298 291.626 205.667 302.082 200.799 312.58C200.226 313.81 199.163 314.548 197.977 315.081C189.591 318.935 180.838 321.519 171.798 323.282C162.676 325.045 153.432 325.373 144.188 324.84C129.912 324.02 116.168 320.781 103.038 315.081C99.1112 313.318 95.3071 311.39 91.7075 309.053Z" fill="#FE87D1"/>
<path d="M209.184 308.971C210.084 306.06 210.534 303.354 210.738 300.565C211.761 286.87 206.771 275.429 197.813 265.465C195.727 263.128 193.6 260.832 191.023 258.986C189.877 258.166 190.532 257.715 191.309 257.182C196.586 253.492 201.249 249.104 205.584 244.43C208.325 241.477 211.147 238.607 213.356 235.286C215.483 232.046 218.06 231.923 221.21 232.784C229.882 235.204 236.467 240.329 241.048 248.038C244.648 254.107 246.039 260.791 246.611 267.679C246.734 269.073 245.957 270.181 245.302 271.247C239.085 281.58 231.436 290.765 222.642 298.966C218.633 302.779 214.215 306.06 209.184 308.971Z" fill="#FE87D2"/>
<path d="M252.543 261.406C249.189 243.363 239.617 231.103 221.619 226.1C221.537 225.731 222.151 225.485 222.519 225.116C227.591 220.073 232.704 215.029 239.208 211.831C249.025 206.951 259.047 206.705 269.15 210.929C273.445 212.733 277.453 214.988 280.276 218.884C282.157 221.508 283.221 224.46 283.466 227.577C284.203 236.598 281.748 244.512 274.999 250.908C273.69 252.139 272.381 252.631 270.786 252.262C265.714 251.113 261.624 253.164 257.819 256.116C255.856 257.592 254.138 259.191 252.543 261.406Z" fill="#FE88D2"/>
<path d="M153.595 221.508C150.118 221.754 147.01 221.18 143.86 220.729C142.51 220.524 141.856 219.991 141.978 218.474C142.51 213.225 142.878 207.935 143.983 202.728C144.187 201.785 144.555 201.539 145.414 201.498C150.364 201.088 155.231 200.39 160.017 199.119C164.558 197.93 168.934 196.29 173.311 194.609C175.479 193.789 177.647 192.969 179.938 192.641C185.337 191.82 188.077 195.306 187.628 200.226C187.218 204.901 184.519 208.468 181.165 211.462C174.497 217.572 166.357 220.36 157.563 221.549C156.213 221.672 154.781 221.508 153.595 221.508Z" fill="#FE87D2"/>
<path d="M13.9077 166.274C15.7484 166.603 17.7527 167.136 19.5525 168.325C24.461 171.605 29.2059 175.173 34.8097 177.305C38.2048 178.576 41.6407 179.601 45.1994 180.134C46.222 180.298 46.672 180.339 46.3038 181.569C44.6268 187.105 43.4814 192.764 42.5406 198.463C42.3361 199.816 41.7226 200.431 40.2091 200.267C30.1876 199.201 21.2705 195.511 14.3167 188.007C10.2672 183.661 7.24032 178.699 7.44484 172.343C7.52665 168.694 10.0218 166.192 13.9077 166.274Z" fill="#FE87D2"/>
<path d="M288.866 228.602C290.584 230.857 291.606 233.153 292.588 235.45C296.31 243.938 297.987 252.836 297.292 262.103C297.046 265.26 296.637 268.458 295.001 271.329C292.956 274.937 290.665 275.306 287.761 272.436C284.857 269.566 283.262 265.834 281.135 262.431C280.071 260.709 279.089 258.904 277.903 257.223C277.372 256.444 277.453 256.157 278.149 255.665C284.325 251.195 287.638 245.004 288.906 237.582C289.438 234.712 289.316 231.841 288.866 228.602Z" fill="#FE87D1"/>
<path d="M148.155 66.6328C147.828 75.9409 144.76 85.413 137.07 93.0399C125.413 104.603 108.437 100.298 102.384 85.413C96.5751 71.1844 102.138 53.3883 111.873 44.1622C120.463 36.0433 133.471 36.2073 141.12 44.7363C146.315 50.559 148.114 57.6528 148.155 66.6328Z" fill="#FDFDFD"/>
<path d="M88.8441 59.0879C88.6396 69.6262 85.6536 79.1393 77.9227 86.6022C72.646 91.6868 66.3877 94.2701 58.9022 92.0148C52.7257 90.1286 48.9625 85.7001 46.7537 79.9184C42.9087 69.9132 44.3403 60.0721 48.5535 50.5589C51.1304 44.7773 54.9754 39.9387 60.4975 36.6993C70.0282 31.1227 80.2542 34.075 85.4081 43.8752C87.8215 48.3447 88.8032 52.8552 88.8441 59.0879Z" fill="#FDFDFD"/>
<path d="M80.2541 136.792C72.2369 132.487 67.3284 125.803 65.1605 117.028C65.2423 115.757 64.8332 114.526 64.7105 113.255C64.3833 109.483 66.0604 107.966 69.6599 109.032C73.2186 110.098 76.7773 111.246 80.4586 111.82C80.9495 111.902 81.3994 112.025 81.8494 111.82C82.3402 111.779 82.7902 111.779 83.1992 112.066C87.3714 113.132 91.6255 112.886 95.8386 112.64C98.6201 112.476 101.361 112.107 104.101 111.533C104.878 111.369 105.697 111.369 106.392 110.877C109.664 109.934 112.937 109.073 116.291 108.663C119.399 108.253 121.322 110.016 121.158 113.132C120.872 118.053 119.031 122.481 116.291 126.541C115.636 126.705 115.104 126.459 114.532 126.213C105.042 122.44 96.1659 123.753 87.9032 129.575C85.5308 131.215 83.4855 133.184 81.8903 135.644C81.4403 136.218 81.1131 136.833 80.2541 136.792Z" fill="#7F2854"/>
<path d="M80.2544 136.792C82.8314 132.815 86.1446 129.493 90.3577 127.279C98.8249 122.768 107.456 121.948 116.209 126.541C108.846 137.981 94.53 144.132 80.2544 136.792Z" fill="#E14E86"/>
<path d="M81.8493 111.779C80.295 112.64 78.8224 111.738 77.3908 111.451C74.4866 110.836 71.6642 109.852 68.8009 109.073C66.3876 108.417 65.365 109.401 65.0786 111.902C64.8741 113.624 65.8967 115.305 65.1604 117.028C64.7514 115.429 64.3014 113.87 64.3833 112.189C64.5878 108.827 66.2239 107.679 69.4145 108.663C72.3187 109.565 75.2229 110.508 78.2498 111.082C79.436 111.328 80.6222 111.533 81.8493 111.779Z" fill="#500C25"/>
<path d="M106.351 110.836C106.433 110.959 107.292 111.082 106.515 111.246C99.3563 112.763 92.1163 113.501 84.7944 112.599C84.14 112.517 83.4037 112.64 82.7901 112.394C82.5447 112.312 83.0356 112.107 83.1992 111.984C90.971 113.009 98.7019 112.353 106.351 110.836Z" fill="#500C25"/>
<path d="M133.757 84.6339C130.075 90.0466 122.14 91.6868 117.436 86.7252C113.632 82.0096 112.405 76.597 113.223 70.6923C113.836 66.3868 115.268 62.4093 117.763 58.8009C119.031 57.5708 120.136 56.1356 121.526 55.1105C127.417 50.764 134.166 53.0192 136.865 60.1541C139.851 68.027 138.583 75.4899 134.779 82.7067C134.411 83.3218 133.757 83.8138 133.757 84.6339Z" fill="#262627"/>
<path d="M133.757 84.6339C133.798 82.5427 135.475 81.1485 136.129 79.3033C138.583 72.2505 139.32 65.3207 135.679 58.4319C132.53 52.5272 125.74 51.42 120.831 56.0536C119.849 56.9967 118.868 57.9398 117.886 58.8419C117.681 58.6779 117.681 58.5139 117.845 58.3498C120.218 55.2335 123.081 52.8962 127.212 52.6502C132.366 52.3631 135.352 55.3975 137.029 59.744C140.342 68.56 139.033 76.884 133.757 84.6339Z" fill="#070707"/>
<path d="M117.845 58.3499C117.845 58.5139 117.886 58.6779 117.886 58.8419C116.005 62.3683 114.246 65.8947 113.673 69.9542C112.937 75.4489 113.305 80.6155 116.864 85.208C117.15 85.577 117.968 85.9461 117.436 86.7252C113.428 82.8707 112.446 77.8681 112.691 72.6195C112.937 67.822 114.45 63.2704 117.068 59.211C117.232 58.8829 117.559 58.6369 117.845 58.3499Z" fill="#090909"/>
<path d="M83.5266 63.6805C83.3221 69.9952 81.6041 75.6949 76.8592 80.1234C70.56 85.9871 62.6655 84.0598 59.7613 76.0229C56.7344 67.7399 60.2521 55.7255 67.0831 50.887C72.4825 47.0735 78.8635 48.5497 81.8495 54.9874C83.1176 57.7348 83.6902 60.6461 83.5266 63.6805Z" fill="#050606"/>
<path d="M59.352 69.7902C59.352 63.1474 61.3972 57.9398 65.0785 53.3473C67.7782 49.9849 72.6458 48.5907 76.4499 50.1899C79.0678 51.297 80.8267 53.5113 81.6856 56.1356C84.0172 63.3114 83.1991 70.2412 79.1087 76.597C76.9408 79.9184 73.9957 82.3377 69.8234 82.9117C66.5511 83.3628 62.0107 80.4104 60.6609 76.72C59.761 74.2597 59.1474 71.7584 59.352 69.7902Z" fill="#262626"/>
</g>
<defs>
<clipPath id="clip0_45_108">
<rect width="304" height="333" fill="white"/>
</clipPath>
</defs>
</svg>
